<svg width="146" height="47" viewBox="0 0 146 47" fill="none" xmlns="http://www.w3.org/2000/svg">
<path d="M12.144 9.272V11.048H7.584V26H5.4V11.048H0.816V9.272H12.144ZM21.3604 12.608C22.3524 12.608 23.2484 12.824 24.0484 13.256C24.8484 13.672 25.4724 14.304 25.9204 15.152C26.3844 16 26.6164 17.032 26.6164 18.248V26H24.4564V18.56C24.4564 17.248 24.1284 16.248 23.4724 15.56C22.8164 14.856 21.9204 14.504 20.7844 14.504C19.6324 14.504 18.7124 14.864 18.0244 15.584C17.3524 16.304 17.0164 17.352 17.0164 18.728V26H14.8324V8.24H17.0164V14.72C17.4484 14.048 18.0404 13.528 18.7924 13.16C19.5604 12.792 20.4164 12.608 21.3604 12.608ZM42.1839 18.92C42.1839 19.336 42.1599 19.776 42.1119 20.24H31.5999C31.6799 21.536 32.1199 22.552 32.9199 23.288C33.7359 24.008 34.7199 24.368 35.8719 24.368C36.8159 24.368 37.5999 24.152 38.2239 23.72C38.8639 23.272 39.3119 22.68 39.5679 21.944H41.9199C41.5679 23.208 40.8639 24.24 39.8079 25.04C38.7519 25.824 37.4399 26.216 35.8719 26.216C34.6239 26.216 33.5039 25.936 32.5119 25.376C31.5359 24.816 30.7679 24.024 30.2079 23C29.6479 21.96 29.3679 20.76 29.3679 19.4C29.3679 18.04 29.6399 16.848 30.1839 15.824C30.7279 14.8 31.4879 14.016 32.4639 13.472C33.4559 12.912 34.5919 12.632 35.8719 12.632C37.1199 12.632 38.2239 12.904 39.1839 13.448C40.1439 13.992 40.8799 14.744 41.3919 15.704C41.9199 16.648 42.1839 17.72 42.1839 18.92ZM39.9279 18.464C39.9279 17.632 39.7439 16.92 39.3759 16.328C39.0079 15.72 38.5039 15.264 37.8639 14.96C37.2399 14.64 36.5439 14.48 35.7759 14.48C34.6719 14.48 33.7279 14.832 32.9439 15.536C32.1759 16.24 31.7359 17.216 31.6239 18.464H39.9279ZM59.8892 9.272V21.632C59.8892 23.008 59.4652 24.112 58.6172 24.944C57.7692 25.76 56.6492 26.168 55.2572 26.168C53.8492 26.168 52.7212 25.752 51.8732 24.92C51.0252 24.072 50.6012 22.92 50.6012 21.464H52.7852C52.8012 22.28 53.0092 22.944 53.4092 23.456C53.8252 23.968 54.4412 24.224 55.2572 24.224C56.0732 24.224 56.6812 23.984 57.0812 23.504C57.4812 23.008 57.6812 22.384 57.6812 21.632V9.272H59.8892ZM69.9278 26.216C68.6958 26.216 67.5758 25.936 66.5678 25.376C65.5758 24.816 64.7918 24.024 64.2158 23C63.6558 21.96 63.3758 20.76 63.3758 19.4C63.3758 18.056 63.6638 16.872 64.2398 15.848C64.8318 14.808 65.6318 14.016 66.6398 13.472C67.6478 12.912 68.7758 12.632 70.0238 12.632C71.2718 12.632 72.3998 12.912 73.4078 13.472C74.4158 14.016 75.2078 14.8 75.7838 15.824C76.3758 16.848 76.6718 18.04 76.6718 19.4C76.6718 20.76 76.3678 21.96 75.7598 23C75.1678 24.024 74.3598 24.816 73.3358 25.376C72.3118 25.936 71.1758 26.216 69.9278 26.216ZM69.9278 24.296C70.7118 24.296 71.4478 24.112 72.1358 23.744C72.8238 23.376 73.3758 22.824 73.7918 22.088C74.2238 21.352 74.4398 20.456 74.4398 19.4C74.4398 18.344 74.2318 17.448 73.8158 16.712C73.3998 15.976 72.8558 15.432 72.1838 15.08C71.5118 14.712 70.7838 14.528 69.9998 14.528C69.1998 14.528 68.4638 14.712 67.7918 15.08C67.1358 15.432 66.6078 15.976 66.2078 16.712C65.8078 17.448 65.6078 18.344 65.6078 19.4C65.6078 20.472 65.7998 21.376 66.1838 22.112C66.5838 22.848 67.1118 23.4 67.7678 23.768C68.4238 24.12 69.1438 24.296 69.9278 24.296ZM91.2073 12.848V26H89.0233V24.056C88.6073 24.728 88.0233 25.256 87.2713 25.64C86.5353 26.008 85.7193 26.192 84.8233 26.192C83.7993 26.192 82.8793 25.984 82.0633 25.568C81.2473 25.136 80.5993 24.496 80.1193 23.648C79.6553 22.8 79.4233 21.768 79.4233 20.552V12.848H81.5833V20.264C81.5833 21.56 81.9113 22.56 82.5673 23.264C83.2233 23.952 84.1193 24.296 85.2553 24.296C86.4233 24.296 87.3433 23.936 88.0153 23.216C88.6873 22.496 89.0233 21.448 89.0233 20.072V12.848H91.2073ZM97.0789 14.984C97.4629 14.232 98.0069 13.648 98.7109 13.232C99.4309 12.816 100.303 12.608 101.327 12.608V14.864H100.751C98.3029 14.864 97.0789 16.192 97.0789 18.848V26H94.8949V12.848H97.0789V14.984ZM110.256 12.608C111.856 12.608 113.152 13.096 114.144 14.072C115.136 15.032 115.632 16.424 115.632 18.248V26H113.472V18.56C113.472 17.248 113.144 16.248 112.488 15.56C111.832 14.856 110.936 14.504 109.8 14.504C108.648 14.504 107.728 14.864 107.04 15.584C106.368 16.304 106.032 17.352 106.032 18.728V26H103.848V12.848H106.032V14.72C106.464 14.048 107.048 13.528 107.784 13.16C108.536 12.792 109.36 12.608 110.256 12.608ZM131.2 18.92C131.2 19.336 131.176 19.776 131.128 20.24H120.616C120.696 21.536 121.136 22.552 121.936 23.288C122.752 24.008 123.736 24.368 124.888 24.368C125.832 24.368 126.616 24.152 127.24 23.72C127.88 23.272 128.328 22.68 128.584 21.944H130.936C130.584 23.208 129.88 24.24 128.824 25.04C127.768 25.824 126.456 26.216 124.888 26.216C123.64 26.216 122.52 25.936 121.528 25.376C120.552 24.816 119.784 24.024 119.224 23C118.664 21.96 118.384 20.76 118.384 19.4C118.384 18.04 118.656 16.848 119.2 15.824C119.744 14.8 120.504 14.016 121.48 13.472C122.472 12.912 123.608 12.632 124.888 12.632C126.136 12.632 127.24 12.904 128.2 13.448C129.16 13.992 129.896 14.744 130.408 15.704C130.936 16.648 131.2 17.72 131.2 18.92ZM128.944 18.464C128.944 17.632 128.76 16.92 128.392 16.328C128.024 15.72 127.52 15.264 126.88 14.96C126.256 14.64 125.56 14.48 124.792 14.48C123.688 14.48 122.744 14.832 121.96 15.536C121.192 16.24 120.752 17.216 120.64 18.464H128.944ZM145.41 12.848L137.49 32.192H135.234L137.826 25.856L132.522 12.848H134.946L139.074 23.504L143.154 12.848H145.41Z" fill="white"/>
<g clip-path="url(#clip0_1_126)" filter="url(#filter0_d_1_126)">
<path d="M132.084 21.9929C132.019 21.7638 131.781 21.6307 131.552 21.6955C131.323 21.7603 131.19 21.9986 131.255 22.2276L132.428 26.3751L115.839 31.0702C114.693 31.3943 114.028 32.5855 114.352 33.7308C114.367 33.7996 114.386 33.8675 114.409 33.934C114.852 34.9801 116.013 35.5234 117.099 35.193L118.671 34.7481L118.084 32.6744L122.232 31.5006L122.819 33.5743L133.602 30.5225C134.06 30.3929 134.327 29.9164 134.197 29.4583L133.023 25.3108" fill="#3B97D3"/>
<path d="M131.615 20.3339L132.839 24.6597L124.447 19.9702L126.325 16.6167C127.743 18.2853 129.564 19.5647 131.615 20.3339Z" fill="#95A5A5"/>
<path d="M117.607 34.1534L116.865 34.3635C116.206 34.5708 115.497 34.2511 115.217 33.6205C115.201 33.5666 115.191 33.5292 115.181 33.4961C114.987 32.8089 115.386 32.0942 116.073 31.8997L132.249 27.322C132.229 28.2032 132.475 29.07 132.953 29.8105L117.607 34.1534Z" fill="#F5EFCA"/>
<path d="M132.839 24.6597L132.906 24.8961C133.035 25.3523 132.885 26.246 132.428 26.3751L132.395 26.3845L123.61 21.475L118.692 30.2626L116.353 30.9246L121.681 21.3849L120.176 20.5475L118.674 19.7047L111.485 15.6873L110.822 13.344L122.529 19.8861L124.212 16.8743L114.846 11.6406L117.194 10.9762L125.048 15.3654L125.277 14.9557C125.561 15.5479 125.913 16.1052 126.325 16.6167L124.447 19.9702L132.839 24.6597Z" fill="#F3D55B"/>
<path d="M124.822 13.745C124.94 14.1619 125.093 14.5682 125.278 14.9599L125.049 15.3696L117.194 10.9763L128.093 7.89165C125.574 8.60473 124.109 11.2254 124.822 13.745Z" fill="#F29C1F"/>
<path d="M124.206 16.8713L122.523 19.8831L110.822 13.344L110.674 12.8214L114.846 11.6406L124.206 16.8713Z" fill="#4FBA6F"/>
<path d="M110.674 12.8214L115.839 31.0702C114.693 31.3943 114.028 32.5855 114.352 33.7308L109.187 15.482C108.863 14.3368 109.529 13.1456 110.674 12.8214Z" fill="#2980BA"/>
<path d="M132.906 24.8961L134.197 29.4583L131.957 30.0921C131.4 29.3897 131.147 28.4939 131.253 27.6036L132.663 27.2046C133.121 27.0749 133.388 26.5984 133.258 26.1403L132.906 24.8961Z" fill="#285680"/>
<path d="M132.906 24.8961L133.023 25.3109C133.007 25.2569 132.981 25.2065 132.945 25.1627C132.942 25.0726 132.929 24.9833 132.906 24.8961Z" fill="#285680"/>
<path d="M132.395 26.3845L118.692 30.2626L123.61 21.4749L132.395 26.3845Z" fill="#95A5A5"/>
<path d="M121.681 21.3849L116.353 30.9247L115.839 31.0702L114.657 26.8937L118.674 19.7048L120.176 20.5475L121.681 21.3849Z" fill="#285680"/>
<path d="M115.747 18.0693L113.365 22.3316L111.485 15.6874L115.747 18.0693Z" fill="#285680"/>
<path d="M118.674 19.7047L114.657 26.8937L113.365 22.3315L115.747 18.0692L118.674 19.7047Z" fill="#4482C3"/>
<path d="M128.093 7.89159C125.574 8.60467 124.109 11.2253 124.822 13.7449C124.94 14.1618 125.093 14.5682 125.278 14.9598C125.562 15.552 125.914 16.1094 126.326 16.6208C127.745 18.2879 129.565 19.5658 131.615 20.3339C131.615 20.3339 135.286 15.8949 133.947 11.1626C133.604 9.95267 132.795 8.92829 131.697 8.31485C130.6 7.70141 129.303 7.54916 128.093 7.89159ZM129.971 14.5275C128.597 14.9165 127.168 14.1176 126.779 12.7433C126.39 11.369 127.188 9.93953 128.563 9.55057C129.937 9.16162 131.367 9.96044 131.756 11.3348C131.942 11.9948 131.859 12.7019 131.525 13.3007C131.19 13.8994 130.631 14.3407 129.971 14.5275Z" fill="#E64C3C"/>
<path d="M129.971 14.5276C131.346 14.1386 132.144 12.7092 131.756 11.3348C131.367 9.96048 129.937 9.16167 128.563 9.55062C127.188 9.93957 126.39 11.369 126.779 12.7434C127.168 14.1177 128.597 14.9165 129.971 14.5276Z" fill="#F5EFCA"/>
<path d="M130.089 14.9423C128.485 15.3961 126.818 14.4641 126.364 12.8607C125.91 11.2573 126.842 9.58966 128.445 9.13588C130.049 8.6821 131.717 9.61405 132.17 11.2174C132.388 11.9874 132.291 12.8124 131.901 13.511C131.511 14.2095 130.859 14.7244 130.089 14.9423ZM128.68 9.96537C127.535 10.2895 126.869 11.4807 127.193 12.626C127.517 13.7713 128.709 14.4369 129.854 14.1128C130.999 13.7887 131.665 12.5975 131.341 11.4522C131.185 10.9022 130.817 10.4366 130.318 10.1578C129.819 9.87892 129.23 9.80972 128.68 9.96537Z" fill="#C03A2B"/>
<path d="M124.008 31.4459L116.958 33.4414C116.729 33.5062 116.49 33.373 116.425 33.144C116.361 32.9149 116.494 32.6767 116.723 32.6119L123.774 30.6165C124.003 30.5516 124.241 30.6848 124.306 30.9138C124.37 31.1429 124.237 31.3811 124.008 31.4459Z" fill="#E4C05C"/>
<path d="M122.115 31.0859L123.171 34.8186C123.213 34.9676 123.172 35.1278 123.063 35.2382C122.955 35.3486 122.795 35.3922 122.646 35.3525L121.191 34.9622C121.042 34.9245 120.884 34.9692 120.777 35.0796L119.742 36.1741C119.635 36.282 119.479 36.3253 119.331 36.288C119.184 36.2507 119.067 36.1383 119.024 35.9923L117.967 32.2596L122.115 31.0859Z" fill="#E64C3C"/>
<path d="M132.906 24.8961L133.023 25.3109C133.007 25.2569 132.981 25.2065 132.945 25.1627C132.942 25.0726 132.929 24.9833 132.906 24.8961Z" fill="#3B97D3"/>
</g>
<g clip-path="url(#clip1_1_126)">
<path d="M100.3 39.3105C100.3 39.3105 102.035 41.8741 98.0239 43.8406C98.0239 43.8406 96.2023 39.5361 100.3 39.3105Z" fill="url(#paint0_linear_1_126)"/>
<path d="M98.0239 43.8406C98.467 42.4539 100.3 39.3105 100.3 39.3105C96.2023 39.5361 98.0239 43.8406 98.0239 43.8406Z" fill="url(#paint1_linear_1_126)"/>
<path d="M101.172 37.69C101.172 37.69 104.222 37.1648 104.363 41.6293C104.363 41.6294 99.6905 41.5176 101.172 37.69Z" fill="url(#paint2_linear_1_126)"/>
<path d="M104.363 41.6295C103.282 40.6549 101.172 37.6901 101.172 37.6901C99.6905 41.5177 104.363 41.6295 104.363 41.6295Z" fill="url(#paint3_linear_1_126)"/>
<path d="M102.276 36.7709C102.276 36.7709 105.017 38.2084 106.524 34.0035C106.524 34.0034 102.043 32.6733 102.276 36.7709Z" fill="url(#paint4_linear_1_126)"/>
<path d="M106.524 34.0035C105.195 34.5984 102.276 36.7709 102.276 36.7709C102.043 32.6734 106.524 34.0035 106.524 34.0035Z" fill="url(#paint5_linear_1_126)"/>
<path d="M100.3 39.3105C99.2492 39.3683 98.5876 39.6946 98.1847 40.1477L98.9124 41.594L100.537 41.4589C100.573 41.3543 100.601 41.2514 100.622 41.151C100.838 40.1062 100.3 39.3105 100.3 39.3105Z" fill="url(#paint6_linear_1_126)"/>
<path d="M101.172 37.69C100.628 39.0962 100.914 40.0009 101.494 40.5827L104.224 40.3557C103.601 37.2718 101.172 37.69 101.172 37.69Z" fill="url(#paint7_linear_1_126)"/>
<path d="M102.276 36.7709C102.276 36.7709 105.017 38.2084 106.524 34.0035C106.524 34.0034 102.043 32.6733 102.276 36.7709Z" fill="url(#paint8_linear_1_126)"/>
<path d="M98.2822 36.4601C98.2822 36.4601 95.2224 35.7981 95.7037 34.9889C96.185 34.1797 95.1425 34.3306 95.9327 33.6628C96.723 32.995 96.0473 32.9998 96.9387 32.2329C97.8302 31.466 99.9231 31.7783 99.8218 33.4945C99.752 34.6776 100.338 37.1104 98.2822 36.4601Z" fill="url(#paint9_radial_1_126)"/>
<path d="M96.0136 35.2309C95.9824 35.2277 95.9508 35.2303 95.9205 35.2387L95.91 35.2396L95.9125 35.2412C95.8687 35.2549 95.828 35.2806 95.7961 35.3183C95.7735 35.345 95.758 35.3751 95.7484 35.4065C95.7495 35.4078 95.7505 35.4092 95.7515 35.4105C95.7794 35.4457 95.8124 35.4804 95.8502 35.5144C95.8516 35.5157 95.853 35.5171 95.8545 35.5184C95.8736 35.5354 95.8939 35.5524 95.9153 35.5692C95.9167 35.5702 95.9181 35.5713 95.9194 35.5724C95.9632 35.6065 96.0114 35.64 96.0634 35.6728C96.0648 35.6737 96.0663 35.6746 96.0678 35.6756C96.1478 35.7259 96.2364 35.7745 96.3308 35.8212C97.11 36.2064 98.2822 36.4601 98.2822 36.4601C99.6626 36.8967 99.852 35.9437 99.8485 34.9121L96.0136 35.2309ZM96.2382 35.4824C96.2382 35.4738 96.2378 35.4652 96.237 35.4567L96.285 35.4886C96.2695 35.4865 96.2536 35.4844 96.2382 35.4824Z" fill="url(#paint10_linear_1_126)"/>
<path d="M99.4596 36.3048C99.5415 36.2044 99.5828 36.077 99.584 35.9474C99.5867 35.6436 99.565 34.7901 99.2665 34.1366C98.8971 33.3276 99.3108 34.6674 99.2342 35.2027C99.1577 35.7381 98.9223 34.6337 98.2496 34.1266C97.5769 33.6196 98.8279 35.3391 98.7942 35.7276C98.7605 36.1162 98.3455 35.3816 97.93 35.2763C97.5146 35.171 98.2716 35.9894 98.4696 36.103C98.6675 36.2165 97.791 36.0802 97.6497 36.1824C97.5083 36.2846 98.7277 36.5289 99.1135 36.4901C99.2788 36.4734 99.3884 36.3922 99.4596 36.3048Z" fill="url(#paint11_linear_1_126)"/>
<path d="M98.8877 36.5438C98.8877 36.5438 96.9038 35.0157 95.5047 36.2517C94.1056 37.4876 95.3282 37.4133 95.0886 37.8155C94.849 38.2177 94.1098 38.8526 95.1176 39.8065C96.1254 40.7603 100.573 37.769 98.8877 36.5438Z" fill="url(#paint12_radial_1_126)"/>
<path d="M99.1681 37.6662C99.3062 37.3348 99.1348 36.9549 98.7995 36.8268C98.3683 36.662 97.7207 36.4307 97.3652 36.3783C96.8016 36.2953 97.6693 36.687 97.9157 36.8614C98.1622 37.0358 97.0987 36.8551 96.5211 37.0516C95.9436 37.2481 96.3974 37.4609 96.8306 37.3135C97.2637 37.1662 97.0402 37.491 96.4987 37.7865C95.9573 38.0821 96.2959 38.2488 97.3496 37.7529C98.4033 37.257 98.8533 37.5351 98.4839 37.6678C98.1145 37.8006 97.6713 38.1623 97.5522 38.4041C97.4862 38.5383 98.3189 38.3265 98.8998 37.9785C99.0156 37.9092 99.1081 37.8062 99.1614 37.6821C99.1637 37.6768 99.1659 37.6715 99.1681 37.6662Z" fill="url(#paint13_linear_1_126)"/>
<path d="M99.4846 37.5037C99.2468 37.4841 99.0117 37.5387 98.8065 37.6509C98.372 37.8886 97.447 38.5074 97.0418 39.6385C96.5027 41.1434 97.5642 41.0274 97.8044 40.9079C98.0447 40.7883 98.2056 41.3678 98.8068 41.5633C99.4079 41.7588 99.8145 41.0893 100.306 41.1102C100.798 41.131 101.021 41.3865 101.354 40.781C101.687 40.1755 102.333 40.4221 101.662 39.2081C101.102 38.1963 100.248 37.5667 99.4846 37.5037Z" fill="url(#paint14_radial_1_126)"/>
<path d="M99.4626 35.8261C99.4626 35.8261 99.2372 33.5148 100.455 32.6788C100.938 32.4165 101.346 32.8571 101.683 32.6281C102.019 32.3991 102.885 32.7865 102.754 33.2736C102.623 33.7607 103.678 33.9524 103.586 34.6086C103.493 35.2648 99.4723 38.0595 99.4626 35.8261Z" fill="url(#paint15_radial_1_126)"/>
<path d="M103.586 34.6013L99.4622 34.9442C99.4258 35.4489 99.4625 35.8262 99.4625 35.8262C99.4703 37.6297 102.094 36.1543 103.152 35.174C103.184 35.1451 103.213 35.1165 103.242 35.0885C103.242 35.0881 103.243 35.0877 103.243 35.0873C103.271 35.0597 103.298 35.0326 103.323 35.0061C103.323 35.0054 103.324 35.0047 103.325 35.004C103.349 34.9779 103.372 34.9524 103.394 34.9276C103.395 34.9266 103.396 34.9255 103.397 34.9245C103.418 34.9001 103.437 34.8764 103.455 34.8534C103.456 34.8522 103.457 34.851 103.458 34.8497C103.467 34.8385 103.475 34.8275 103.483 34.8166C103.483 34.8156 103.484 34.8146 103.485 34.8135C103.492 34.8035 103.499 34.7937 103.505 34.784C103.506 34.7828 103.507 34.7815 103.508 34.7803C103.515 34.7701 103.521 34.7603 103.527 34.7506C103.528 34.7489 103.529 34.7474 103.53 34.7457C103.535 34.7369 103.54 34.7283 103.545 34.7199C103.545 34.7188 103.546 34.7177 103.546 34.7166C103.551 34.7075 103.556 34.6987 103.56 34.6901C103.56 34.6883 103.561 34.6865 103.562 34.6847C103.566 34.6767 103.569 34.6689 103.572 34.6614C103.572 34.6607 103.572 34.6599 103.572 34.6592C103.575 34.6512 103.578 34.6435 103.58 34.636C103.58 34.6342 103.581 34.6324 103.581 34.6306C103.583 34.6231 103.585 34.6158 103.586 34.6088C103.586 34.6088 103.586 34.6087 103.586 34.6087C103.586 34.6061 103.586 34.6037 103.586 34.6013Z" fill="url(#paint16_linear_1_126)"/>
<path d="M99.7485 36.4486C99.6712 36.3446 99.6356 36.2155 99.6402 36.086C99.6511 35.7823 99.711 34.9306 100.038 34.2911C100.444 33.4996 99.9704 34.8194 100.023 35.3577C100.075 35.8959 100.36 34.8031 101.055 34.3267C101.749 33.8503 100.423 35.5121 100.439 35.9017C100.455 36.2914 100.903 35.5761 101.322 35.4895C101.742 35.4029 100.949 36.1866 100.747 36.2912C100.544 36.3958 101.425 36.2988 101.562 36.4072C101.699 36.5156 100.47 36.7052 100.086 36.6491C99.9215 36.6251 99.8157 36.5391 99.7485 36.4486Z" fill="url(#paint17_linear_1_126)"/>
<path d="M99.87 36.6336C99.87 36.6336 100.619 34.8118 102.334 34.8192C102.993 34.8769 102.813 35.1643 103.43 35.2356C104.047 35.3069 104.196 35.829 104.098 36.3637C103.999 36.8985 104.723 37.6426 104.049 38.1612C103.374 38.6797 103.073 38.4588 102.948 38.8425C102.823 39.2262 102.478 39.6364 101.547 39.0972C100.616 38.558 99.5652 37.3047 99.87 36.6336Z" fill="url(#paint18_radial_1_126)"/>
<path d="M99.4087 37.4921C99.2794 37.501 99.1582 37.558 99.0629 37.6458C98.8394 37.8517 98.2316 38.4513 97.959 39.116C97.6216 39.9388 98.3159 38.7206 98.7588 38.4103C99.2017 38.1 98.5571 39.0271 98.6473 39.8646C98.7375 40.7021 99.1362 38.6134 99.4427 38.3722C99.7492 38.1311 99.4971 38.9363 99.7045 39.3114C99.9118 39.6864 99.9911 38.5744 99.9385 38.3523C99.886 38.1303 100.386 38.8629 100.557 38.8961C100.728 38.9294 100.073 37.8727 99.7805 37.6178C99.6553 37.5086 99.5211 37.4842 99.4087 37.4921Z" fill="url(#paint19_linear_1_126)"/>
<path d="M99.9372 37.2685C99.725 36.979 99.8021 36.5694 100.098 36.3658C100.478 36.1041 101.053 35.7268 101.386 35.5922C101.914 35.3787 101.163 35.9639 100.965 36.1913C100.766 36.4188 101.647 36.1314 102.254 36.1864C102.862 36.2413 102.469 36.4541 102.013 36.4129C101.558 36.3716 101.69 36.6928 102.56 36.7567C103.175 36.8019 102.8 37.14 101.682 36.9932C100.527 36.8415 100.162 37.1262 100.547 37.2008C100.98 37.2847 101.358 37.2849 101.53 37.492C101.626 37.6068 100.918 37.7101 100.272 37.5088C100.143 37.4686 100.028 37.3903 99.9474 37.2823C99.944 37.2777 99.9406 37.2731 99.9372 37.2685Z" fill="url(#paint20_linear_1_126)"/>
<path d="M103.38 35.229C103.375 35.2283 103.37 35.2275 103.365 35.2267C103.354 35.225 103.343 35.2233 103.333 35.2214C103.328 35.2205 103.322 35.2195 103.317 35.2185C103.306 35.2166 103.296 35.2145 103.286 35.2123C103.282 35.2114 103.278 35.2106 103.274 35.2097C103.262 35.2069 103.25 35.2039 103.238 35.2009C103.232 35.1994 103.227 35.1978 103.221 35.1962C103.215 35.1944 103.208 35.1927 103.202 35.1908C103.196 35.189 103.191 35.1872 103.185 35.1853C103.18 35.1836 103.175 35.1819 103.17 35.1802C103.164 35.1782 103.158 35.1762 103.152 35.1741L103.152 35.1741C102.851 35.0628 102.867 34.8659 102.334 34.8193C100.619 34.8119 99.8701 36.6337 99.8701 36.6337C99.7385 36.9235 99.5959 37.3439 99.8511 37.7465L104.316 37.3809C104.311 37.359 104.306 37.3369 104.301 37.3149C104.301 37.3146 104.301 37.3143 104.301 37.314C104.273 37.1974 104.233 37.0802 104.195 36.9651C104.192 36.9541 104.188 36.9432 104.185 36.9322C104.183 36.9253 104.18 36.9184 104.178 36.9115C104.172 36.8928 104.166 36.8741 104.161 36.8554C104.16 36.8525 104.159 36.8495 104.158 36.8466C104.152 36.8282 104.147 36.8099 104.142 36.7917C104.141 36.7888 104.14 36.7858 104.139 36.7828C104.134 36.7645 104.13 36.7464 104.125 36.7284C104.124 36.7257 104.124 36.723 104.123 36.7204C104.119 36.7017 104.114 36.683 104.111 36.6646C104.11 36.6628 104.11 36.661 104.109 36.6592C104.105 36.6393 104.102 36.6195 104.099 36.5999C104.099 36.5991 104.099 36.5984 104.099 36.5976C104.096 36.5785 104.093 36.5595 104.092 36.5407C104.092 36.5389 104.091 36.5372 104.091 36.5353C104.09 36.5174 104.089 36.4996 104.089 36.4821C104.089 36.4801 104.089 36.4781 104.089 36.4761C104.088 36.4584 104.089 36.4409 104.09 36.4235C104.09 36.422 104.091 36.4205 104.091 36.419C104.092 36.4004 104.095 36.382 104.098 36.3638C104.147 36.0965 104.134 35.8323 104.032 35.626C104.013 35.5873 103.991 35.5506 103.965 35.5164C103.957 35.505 103.948 35.4939 103.939 35.483C103.92 35.4613 103.9 35.4406 103.878 35.4213C103.77 35.3243 103.623 35.258 103.43 35.2357C103.413 35.2337 103.396 35.2314 103.38 35.229Z" fill="url(#paint21_linear_1_126)"/>
<path d="M93.9475 35.5109C93.9475 35.5109 96.7957 35.9819 97.8179 36.7883C98.84 37.5948 99.6912 37.9952 100.109 37.6119C100.527 37.2287 100.215 36.2607 98.3941 35.851C96.5729 35.4413 94.5337 35.3021 93.9487 35.2721C93.3636 35.242 93.5414 35.5189 93.9475 35.5109Z" fill="url(#paint22_linear_1_126)"/>
<path d="M94.0903 35.6887C94.2705 35.4758 94.244 35.1572 94.0311 34.977C93.8182 34.7968 93.4996 34.8233 93.3194 35.0362C93.1392 35.2491 93.1657 35.5677 93.3786 35.7479C93.5915 35.9281 93.9101 35.9016 94.0903 35.6887Z" fill="url(#paint23_radial_1_126)"/>
<path d="M94.8184 35.973C94.9078 35.8672 94.8947 35.709 94.789 35.6195C94.6833 35.5301 94.525 35.5432 94.4356 35.6489C94.3461 35.7546 94.3593 35.9129 94.465 36.0023C94.5707 36.0918 94.7289 36.0787 94.8184 35.973Z" fill="url(#paint24_radial_1_126)"/>
<path d="M95.209 35.3478C95.2985 35.2421 95.2853 35.0839 95.1796 34.9944C95.0739 34.9049 94.9157 34.9181 94.8262 35.0238C94.7367 35.1295 94.7499 35.2877 94.8556 35.3772C94.9613 35.4667 95.1195 35.4535 95.209 35.3478Z" fill="url(#paint25_radial_1_126)"/>
<path d="M95.6243 36.1011C95.7137 35.9954 95.7006 35.8372 95.5949 35.7477C95.4892 35.6582 95.331 35.6714 95.2415 35.7771C95.152 35.8828 95.1652 36.041 95.2709 36.1305C95.3766 36.22 95.5348 36.2068 95.6243 36.1011Z" fill="url(#paint26_radial_1_126)"/>
<path d="M96.1791 35.6423C96.2686 35.5366 96.2554 35.3783 96.1497 35.2889C96.044 35.1994 95.8858 35.2125 95.7963 35.3182C95.7068 35.424 95.72 35.5822 95.8257 35.6717C95.9314 35.7611 96.0896 35.748 96.1791 35.6423Z" fill="url(#paint27_radial_1_126)"/>
</g>
<g clip-path="url(#clip2_1_126)">
<path d="M48.16 8.26961C48.0714 8.36499 47.9831 8.4621 47.895 8.56113C47.8644 8.48473 47.8372 8.40822 47.8133 8.33139C47.7974 8.27991 47.8411 8.22952 47.8944 8.23706C47.9853 8.2501 48.074 8.26074 48.16 8.26961Z" fill="#47821C"/>
<path d="M57.6494 7.2211C58.2159 7.17842 58.5203 7.00212 59.2798 6.75447C59.4065 6.71317 59.4975 6.60102 59.51 6.46835C59.6219 5.28189 59.5559 4.29278 59.4716 3.64972C59.4038 3.13258 59.063 2.6931 58.5822 2.49092C57.8786 2.19504 57.1732 2.02224 56.4991 1.9335C56.382 1.91808 56.266 1.9668 56.1928 2.05951C55.6678 2.72425 55.1262 3.24683 54.8832 4.10614C54.8614 4.18325 54.7498 4.17588 54.7391 4.09648C54.6807 3.66129 54.6175 2.87871 54.7196 1.92056C54.7246 1.87366 54.6853 1.83384 54.6384 1.83898C54.0848 1.89964 53.2873 2.04781 52.902 2.13805C52.8794 2.14333 52.8609 2.15876 52.8517 2.18C52.4506 3.10496 51.9444 4.43409 51.7828 5.56522C51.7712 5.64694 51.6549 5.65105 51.6377 5.57029C51.5027 4.93441 51.2764 3.74165 51.2617 2.83081C51.2607 2.77373 51.1985 2.73912 51.1498 2.76885C50.9809 2.87189 50.6916 3.05218 50.588 3.11631C50.5748 3.12449 50.5646 3.13647 50.5588 3.15092C50.2399 3.94167 49.9081 5.07339 50.058 6.11041C50.0681 6.18011 49.9854 6.22351 49.9343 6.17514C49.6617 5.91755 49.1226 5.32723 48.9708 4.56795C48.9589 4.50843 48.8841 4.48754 48.8437 4.53285C48.3233 5.11633 47.9689 5.74879 47.7773 6.55922C47.772 6.58154 47.7776 6.6049 47.7922 6.62259C48.2215 7.14247 48.7282 7.86219 49.5454 8.1252C49.6211 8.14961 49.6112 8.2596 49.5321 8.26868C49.1801 8.30914 48.6043 8.3381 47.8933 8.23691C47.8399 8.22932 47.7961 8.27969 47.8121 8.33115C47.9461 8.76244 48.1837 9.18833 48.5476 9.60376C48.9257 10.0856 49.8776 10.3042 50.2998 9.42712C50.3944 9.23124 50.4407 8.81203 50.5797 8.63864C50.8866 8.25584 51.1619 8.09005 51.4718 7.82767C52.019 7.3873 52.7491 7.39499 53.1038 7.84457C53.4564 8.29598 53.3015 9.02137 52.7542 9.46182C52.4298 9.70981 52.2107 9.94207 51.7725 10.1586C51.5743 10.2566 51.1649 10.1486 50.9551 10.1976C50.7722 10.2401 50.6083 10.3243 50.4709 10.4349C50.046 10.7769 50.0778 11.5536 50.3851 11.9452C50.6946 12.3868 51.0409 12.7121 51.4147 12.9409C51.4666 12.9727 51.5329 12.9315 51.5268 12.8708C51.4328 11.9242 51.6234 11.3968 51.7575 11.1501C51.7916 11.0873 51.8866 11.1061 51.8951 11.1771C52.0051 12.0969 52.264 12.767 52.6806 13.3413C52.6943 13.3603 52.7162 13.3714 52.7395 13.3714C53.0255 13.3713 53.6513 13.3659 53.9127 13.3214C54.4154 13.2358 54.893 13.0446 55.3333 12.7968C55.3857 12.7673 55.3816 12.6912 55.327 12.666C54.6379 12.3487 54.1935 11.6944 54.0033 11.3631C53.967 11.3 54.0349 11.2281 54.1002 11.2605C54.9806 11.6981 55.5716 12.0957 56.5475 12.018C56.565 12.0166 56.5815 12.0089 56.5938 11.9963C56.7516 11.8346 57.6917 10.8774 58.0457 10.5133C58.0921 10.4656 58.0562 10.3862 57.9897 10.3887C56.7611 10.4339 55.6545 9.79446 55.174 9.46864C55.1089 9.4245 55.149 9.32285 55.2267 9.33489C56.321 9.50469 57.4868 9.56392 58.4982 9.37635C58.5213 9.37206 58.5407 9.35711 58.5509 9.336C58.7249 8.97592 59.0478 8.22212 59.2311 7.68974C59.2465 7.64518 59.2164 7.59789 59.1696 7.59246C58.512 7.51639 58.0029 7.43478 57.6418 7.3671C57.5571 7.3513 57.5636 7.22758 57.6494 7.2211Z" fill="#4E901E"/>
<path d="M59.1839 2.95487C58.4972 3.50745 53.8065 7.28206 53.1052 7.84635C53.0872 7.82922 52.9718 7.66182 52.7242 7.56893C52.724 7.56868 52.7235 7.56862 52.723 7.56857C52.3191 7.41155 51.8246 7.54325 51.4717 7.82782C51.0758 8.1504 50.8511 8.30074 50.5798 8.63879C50.4995 8.73843 50.4414 8.95624 50.4408 8.96127C50.3634 9.23024 50.3298 9.55928 49.9622 9.85141C49.5372 10.1932 48.855 9.99549 48.5477 9.60372C48.2484 9.26226 48.0348 8.91382 47.8938 8.56097C47.8632 8.48456 47.836 8.40806 47.8122 8.33122C47.7963 8.27975 47.8399 8.22936 47.8932 8.2369C47.9841 8.24994 48.0728 8.26055 48.1588 8.26944C48.7478 8.33059 49.2252 8.30415 49.5322 8.26875C49.6109 8.25929 49.6215 8.15043 49.5455 8.12518C49.2369 8.02586 48.9747 7.86321 48.742 7.66826C48.3724 7.35903 48.0779 6.96873 47.7923 6.62283L47.7923 6.6226C47.7775 6.60485 47.772 6.58166 47.7772 6.55924C47.9667 5.75639 48.3233 5.11537 48.8439 4.53292C48.8841 4.4874 48.959 4.50843 48.9709 4.56782C49.1228 5.32723 49.6618 5.91747 49.9343 6.17502C49.9856 6.22334 50.0683 6.18003 50.058 6.11027C49.9183 5.14361 50.1944 4.05305 50.5587 3.15105L50.559 3.15084C50.5694 3.12471 50.5369 3.14303 51.15 2.7688C51.186 2.74703 51.2315 2.75892 51.2532 2.79716C51.2939 2.87326 51.2075 3.48168 51.6004 5.39102C51.6124 5.44947 51.625 5.50944 51.6379 5.57038C51.6551 5.65099 51.7714 5.6468 51.7829 5.56515C51.7978 5.45965 51.8161 5.35239 51.8369 5.24397C52.0379 4.18967 52.4882 3.01856 52.8518 2.18001C52.8609 2.15875 52.8795 2.14337 52.9021 2.13804C53.3785 2.02633 54.1749 1.89035 54.6386 1.83906C54.6855 1.83388 54.7246 1.87361 54.7197 1.92053C54.6396 2.67097 54.6515 3.41966 54.7391 4.09629C54.7502 4.16302 54.8223 4.17607 54.8617 4.14198L54.8618 4.14175C54.9081 4.10463 54.9094 3.89388 55.1521 3.4507C55.1521 3.45048 55.1521 3.45048 55.1521 3.45048C55.4443 2.92174 55.8058 2.55013 56.1929 2.05961C56.2661 1.96678 56.3822 1.9182 56.4992 1.9335C57.2938 2.03568 58.1488 2.28868 58.5862 2.49268C58.8259 2.59422 59.0308 2.75485 59.1839 2.95487Z" fill="#5EAC24"/>
<path d="M59.5057 6.4975C59.4832 6.6158 59.3982 6.71592 59.2798 6.75465C58.5203 7.0023 58.2159 7.17854 57.6494 7.22116C57.5628 7.22757 57.5586 7.3525 57.6415 7.36728C58.0029 7.435 58.5118 7.5165 59.1696 7.59271C59.2162 7.59804 59.2463 7.64536 59.2311 7.68992C59.0476 8.22222 58.7247 8.97597 58.5509 9.3362C58.5406 9.35732 58.5211 9.37213 58.4981 9.37645C57.5858 9.54573 56.5481 9.51405 55.5507 9.38172C55.4421 9.36736 55.334 9.35164 55.2266 9.33503C55.1488 9.32301 55.1089 9.4247 55.1738 9.46883C55.2284 9.50576 55.2913 9.54701 55.3613 9.59077C55.9076 9.93123 56.9006 10.429 57.9896 10.3889C58.0557 10.3861 58.0921 10.4656 58.0454 10.5135C56.4816 12.1209 56.5802 12.0145 56.5472 12.0182C55.5714 12.0958 54.9804 11.6982 54.1002 11.2608C54.0348 11.2283 53.9669 11.3002 54.0033 11.3634C54.6049 12.4104 55.3199 12.6402 55.3551 12.6888C55.3737 12.713 55.3751 12.7468 55.3587 12.7729C55.3586 12.7732 55.3584 12.7732 55.3584 12.7732C55.3267 12.8216 54.6329 13.1991 53.9126 13.3215C53.6511 13.3659 53.0253 13.3715 52.7394 13.3714C52.7152 13.3718 52.6926 13.3593 52.6803 13.3414C51.8914 12.2495 51.9559 11.208 51.8723 11.1322C51.84 11.1022 51.7825 11.1042 51.7573 11.1503C51.3696 11.8637 51.5451 12.8395 51.5233 12.9018C51.511 12.94 51.4622 12.9684 51.4145 12.9412C51.0033 12.6894 50.6651 12.345 50.3849 11.9454C50.0777 11.5538 50.0459 10.777 50.4709 10.4352C50.6083 10.3245 50.7721 10.2404 50.9552 10.1978C51.1649 10.1488 51.5744 10.2566 51.7724 10.1586C52.1563 9.97041 52.3911 9.7481 52.4709 9.68985C52.4823 9.67221 52.8107 9.44141 52.9624 9.25972C52.9624 9.25972 52.9624 9.25949 52.9629 9.25929C53.3365 8.82166 53.4091 8.23377 53.1052 7.84644C53.111 7.84173 59.1126 3.01232 59.1839 2.95494C59.3365 3.15395 59.4377 3.3924 59.4716 3.64976C59.6368 4.91142 59.5357 6.35895 59.5057 6.4975Z" fill="#4E901E"/>
<path d="M51.15 2.76882C50.5369 3.14307 50.5695 3.12473 50.5591 3.15087L50.5588 3.15107C50.1944 4.0531 49.9183 5.14365 50.0581 6.11029C50.0683 6.18006 49.9857 6.22336 49.9344 6.17504C49.6619 5.91749 49.1229 5.32722 48.9709 4.56784C48.959 4.50843 48.8842 4.4874 48.844 4.53294C48.3233 5.11539 47.9668 5.75642 47.7773 6.55926C47.7721 6.58168 47.7776 6.60487 47.7924 6.62262L47.7923 6.62285C48.078 6.96875 48.3724 7.35905 48.7421 7.66828C49.688 6.73757 50.6541 5.99048 51.6004 5.39104C51.2076 3.4817 51.294 2.87328 51.2533 2.79718C51.2315 2.75897 51.1861 2.74703 51.15 2.76882Z" fill="#6DC82A"/>
<path d="M54.6386 1.83909C54.1749 1.89035 53.3785 2.02636 52.9021 2.13807C52.8794 2.14338 52.8609 2.15878 52.8517 2.18003C52.4882 3.01859 52.0378 4.1897 51.8369 5.24399C52.8372 4.63392 53.8115 4.18661 54.7121 3.85893C54.6492 3.23682 54.6494 2.57878 54.7197 1.92058C54.7246 1.87362 54.6855 1.83389 54.6386 1.83909Z" fill="#6DC82A"/>
<path d="M58.5861 2.49269C58.1487 2.28868 57.2937 2.03568 56.4991 1.93351C56.3821 1.9182 56.266 1.96679 56.1928 2.05962C55.8057 2.55014 55.4442 2.92177 55.152 3.45048C55.152 3.45048 55.152 3.45048 55.152 3.45071C55.0877 3.56807 55.0402 3.66935 55.0044 3.75566C57.5231 2.89538 59.0994 3.02283 59.1839 2.95488C59.0307 2.75485 58.8258 2.59423 58.5861 2.49269Z" fill="#6DC82A"/>
<path d="M57.9896 10.3888C56.9005 10.429 55.9075 9.93119 55.3613 9.59073C54.4759 10.5509 53.4025 11.4593 52.1076 12.2069C52.2167 12.5482 52.3914 12.9416 52.6802 13.3413C52.6926 13.3593 52.7151 13.3717 52.7394 13.3714C53.0252 13.3715 53.6511 13.3659 53.9126 13.3214C54.6328 13.199 55.3267 12.8215 55.3584 12.7731C55.3584 12.7731 55.3586 12.7731 55.3586 12.7729C55.375 12.7467 55.3736 12.713 55.3551 12.6888C55.3198 12.6402 54.6048 12.4104 54.0032 11.3633C53.9668 11.3001 54.0347 11.2283 54.1001 11.2607C54.9803 11.6982 55.5714 12.0957 56.5472 12.0182C56.5802 12.0145 56.4857 12.1166 58.0454 10.5134C58.0921 10.4655 58.0556 10.3861 57.9896 10.3888Z" fill="#5EAC24"/>
<path d="M59.4715 3.64964C59.4377 3.39226 59.3364 3.1538 59.1838 2.95482C59.1737 3.04404 59.1226 3.29001 59.0566 3.44735C58.5105 4.74981 57.5771 7.09996 55.5507 9.38161C56.5482 9.51394 57.5858 9.54562 58.4981 9.37634C58.5211 9.37202 58.5406 9.35721 58.5509 9.33609C58.7247 8.97586 59.0477 8.22211 59.2311 7.68981C59.2463 7.64526 59.2162 7.59793 59.1696 7.5926C58.5118 7.51639 58.0029 7.43489 57.6415 7.36717C57.5586 7.35239 57.5628 7.22746 57.6494 7.22105C58.2159 7.17843 58.5203 7.00221 59.2798 6.75454C59.3982 6.71581 59.4833 6.61569 59.5057 6.49739C59.5357 6.35886 59.6368 4.91133 59.4715 3.64964Z" fill="#5EAC24"/>
<path d="M54.0111 1.92609C53.9041 2.27431 53.6528 3.14417 53.4906 4.1233C53.4748 4.21767 53.388 4.28231 53.294 4.27156C53.1928 4.25997 53.1212 4.16604 53.138 4.06497C53.2809 3.20165 53.4921 2.42046 53.618 1.99336C53.7458 1.97031 53.8789 1.94741 54.0111 1.92609Z" fill="#47821C"/>
<path d="M57.0801 6.11031C57.1153 6.20237 57.069 6.30571 56.9769 6.34098C56.0919 6.67885 55.3046 6.85449 54.6369 6.86301C54.5145 6.8643 54.3655 6.67831 54.3949 6.55784C54.7741 4.99141 56.17 3.21996 57.2852 2.07475C57.4184 2.10511 57.5524 2.13937 57.6868 2.17755C57.3724 2.4898 55.3182 4.58348 54.7796 6.50065C55.3737 6.47055 56.069 6.30498 56.8494 6.00696C56.9417 5.97195 57.0448 6.01803 57.0801 6.11031Z" fill="#47821C"/>
<path d="M59.5255 4.15343C58.9978 4.43288 57.2441 5.33519 56.2088 5.55658C56.0945 5.5816 55.9902 5.48909 55.9899 5.37828C55.9894 4.45687 57.6294 2.98282 58.3362 2.39254C58.4655 2.44173 58.6131 2.5 58.7046 2.54932C58.7024 2.55182 56.7141 4.15777 56.39 5.14227C57.5183 4.81833 59.28 3.87999 59.4865 3.76884C59.5005 3.88724 59.5139 4.01564 59.5255 4.15343Z" fill="#47821C"/>
<path d="M48.2497 5.34744C48.7943 5.96398 50.2832 7.56943 51.3282 7.94323C51.0621 8.15759 51.0556 8.16172 51.0117 8.19865C49.9592 7.71369 48.6592 6.3445 48.0741 5.68926C48.1271 5.57229 48.1859 5.45839 48.2497 5.34744Z" fill="#47821C"/>
<path d="M51.6902 7.68033C51.5372 7.76548 51.4477 7.84926 51.3964 7.88821C50.9195 7.00649 50.5576 5.12252 50.3426 3.74579C50.4113 3.53302 50.4856 3.33286 50.5589 3.15082C50.5696 3.1239 50.5893 3.11609 50.6097 3.10267C50.7999 4.43343 51.1824 6.70395 51.6902 7.68033Z" fill="#47821C"/>
<path d="M59.568 5.03944C59.2043 5.26524 58.4967 5.68142 57.6471 6.0622C57.6167 6.07577 57.5846 6.08023 57.5538 6.0767C57.3729 6.05601 57.3361 5.8099 57.5009 5.73611C58.4954 5.29037 59.3105 4.78191 59.5559 4.62365C59.5664 4.8494 59.5672 5.00114 59.568 5.03944Z" fill="#47821C"/>
<path d="M53.1152 11.0264C53.1568 11.116 53.1178 11.2221 53.0281 11.2637C52.9387 11.3049 52.8326 11.2661 52.7908 11.1763C52.5455 10.6463 52.3901 10.1868 52.327 9.80544C52.7467 9.46781 52.6364 9.5565 52.6553 9.5413C52.6795 9.91938 52.8341 10.4186 53.1152 11.0264Z" fill="#47821C"/>
<path d="M57.3176 11.2581C57.2205 11.3569 57.1246 11.4548 57.0358 11.5456C56.0103 11.2227 53.6058 10.4011 52.6721 9.528C52.7253 9.48282 52.8243 9.4147 52.9379 9.28766C53.881 10.1462 56.4541 10.9912 57.3176 11.2581Z" fill="#47821C"/>
<path d="M54.381 13.2102C54.26 13.2472 54.137 13.2782 54.0124 13.3028C53.8028 12.9903 53.4469 12.4385 53.117 11.8257C53.0703 11.7391 53.1029 11.6305 53.1898 11.5836C53.2767 11.537 53.3849 11.5695 53.4318 11.6564C53.7975 12.3357 54.1955 12.9384 54.381 13.2102Z" fill="#47821C"/>
<path d="M58.9984 8.3067C58.9485 8.43073 58.8971 8.55508 58.8468 8.67427C58.2481 8.70819 57.1373 8.74538 56.1709 8.64007C56.1545 8.63843 56.1384 8.63659 56.1223 8.63475C55.1009 8.51788 54.0376 8.24442 53.3953 7.64931C53.3801 7.63534 53.3657 7.61619 53.3576 7.60158C53.0336 7.01916 52.9094 6.17971 52.9885 5.10691C52.9959 5.00847 53.0816 4.93457 53.1801 4.94175C53.2785 4.94942 53.3522 5.03483 53.345 5.13307C53.2721 6.12048 53.3773 6.88412 53.6572 7.40396C54.2602 7.94781 55.3702 8.18823 56.4427 8.28527C57.5108 8.38185 58.542 8.33626 58.9984 8.3067Z" fill="#47821C"/>
</g>
<defs>
<filter id="filter0_d_1_126" x="104.6" y="6.60046" width="38.863" height="38.863" filterUnits="userSpaceOnUse" color-interpolation-filters="sRGB">
<feFlood flood-opacity="0" result="BackgroundImageFix"/>
<feColorMatrix in="SourceAlpha" type="matrix" values="0 0 0 0 0 0 0 0 0 0 0 0 0 0 0 0 0 0 127 0" result="hardAlpha"/>
<feOffset dy="4"/>
<feGaussianBlur stdDeviation="2"/>
<feColorMatrix type="matrix" values="0 0 0 0 0 0 0 0 0 0 0 0 0 0 0 0 0 0 0.25 0"/>
<feBlend mode="normal" in2="BackgroundImageFix" result="effect1_dropShadow_1_126"/>
<feBlend mode="normal" in="SourceGraphic" in2="effect1_dropShadow_1_126" result="shape"/>
</filter>
<linearGradient id="paint0_linear_1_126" x1="96.9707" y1="44.123" x2="101.594" y2="37.9021" gradientUnits="userSpaceOnUse">
<stop offset="0.003" stop-color="#FFE000"/>
<stop offset="0.018" stop-color="#FCE000"/>
<stop offset="0.319" stop-color="#C5DD00"/>
<stop offset="0.464" stop-color="#AFDC00"/>
<stop offset="0.55" stop-color="#A7D200"/>
<stop offset="0.695" stop-color="#93B800"/>
<stop offset="0.879" stop-color="#718E00"/>
<stop offset="1" stop-color="#586E00"/>
</linearGradient>
<linearGradient id="paint1_linear_1_126" x1="97.67" y1="41.2339" x2="100.434" y2="41.8671" gradientUnits="userSpaceOnUse">
<stop stop-color="#AFDC00" stop-opacity="0"/>
<stop offset="0.472" stop-color="#84A600" stop-opacity="0.472"/>
<stop offset="1" stop-color="#586E00"/>
</linearGradient>
<linearGradient id="paint2_linear_1_126" x1="104.187" y1="42.7055" x2="100.421" y2="35.9311" gradientUnits="userSpaceOnUse">
<stop offset="0.003" stop-color="#FFE000"/>
<stop offset="0.018" stop-color="#FCE000"/>
<stop offset="0.319" stop-color="#C5DD00"/>
<stop offset="0.464" stop-color="#AFDC00"/>
<stop offset="0.55" stop-color="#A7D200"/>
<stop offset="0.695" stop-color="#93B800"/>
<stop offset="0.879" stop-color="#718E00"/>
<stop offset="1" stop-color="#586E00"/>
</linearGradient>
<linearGradient id="paint3_linear_1_126" x1="101.842" y1="40.8793" x2="103.557" y2="38.6206" gradientUnits="userSpaceOnUse">
<stop stop-color="#AFDC00" stop-opacity="0"/>
<stop offset="0.472" stop-color="#84A600" stop-opacity="0.472"/>
<stop offset="1" stop-color="#586E00"/>
</linearGradient>
<linearGradient id="paint4_linear_1_126" x1="106.687" y1="32.9251" x2="101.021" y2="38.2134" gradientUnits="userSpaceOnUse">
<stop offset="0.003" stop-color="#FFE000"/>
<stop offset="0.018" stop-color="#FCE000"/>
<stop offset="0.319" stop-color="#C5DD00"/>
<stop offset="0.464" stop-color="#AFDC00"/>
<stop offset="0.55" stop-color="#A7D200"/>
<stop offset="0.695" stop-color="#93B800"/>
<stop offset="0.879" stop-color="#718E00"/>
<stop offset="1" stop-color="#586E00"/>
</linearGradient>
<linearGradient id="paint5_linear_1_126" x1="103.893" y1="33.9421" x2="104.831" y2="36.6188" gradientUnits="userSpaceOnUse">
<stop stop-color="#AFDC00" stop-opacity="0"/>
<stop offset="0.472" stop-color="#84A600" stop-opacity="0.472"/>
<stop offset="1" stop-color="#586E00"/>
</linearGradient>
<linearGradient id="paint6_linear_1_126" x1="102.477" y1="41.2617" x2="98.6294" y2="40.1769" gradientUnits="userSpaceOnUse">
<stop stop-color="#AFDC00" stop-opacity="0"/>
<stop offset="0.472" stop-color="#84A600" stop-opacity="0.472"/>
<stop offset="1" stop-color="#586E00"/>
</linearGradient>
<linearGradient id="paint7_linear_1_126" x1="104.993" y1="38.8306" x2="100.658" y2="39.1911" gradientUnits="userSpaceOnUse">
<stop stop-color="#AFDC00" stop-opacity="0"/>
<stop offset="0.472" stop-color="#84A600" stop-opacity="0.472"/>
<stop offset="1" stop-color="#586E00"/>
</linearGradient>
<linearGradient id="paint8_linear_1_126" x1="105.484" y1="35.1435" x2="103.25" y2="35.5611" gradientUnits="userSpaceOnUse">
<stop stop-color="#AFDC00" stop-opacity="0"/>
<stop offset="0.472" stop-color="#84A600" stop-opacity="0.472"/>
<stop offset="1" stop-color="#586E00"/>
</linearGradient>
<radialGradient id="paint9_radial_1_126" cx="0" cy="0" r="1" gradientUnits="userSpaceOnUse" gradientTransform="translate(100.972 38.4169) rotate(-61.835) scale(6.66052 6.66091)">
<stop stop-color="#FF5C45"/>
<stop offset="0.29" stop-color="#FF5F47"/>
<stop offset="0.498" stop-color="#FF684E"/>
<stop offset="0.681" stop-color="#FF785B"/>
<stop offset="0.847" stop-color="#FF8E6C"/>
<stop offset="0.998" stop-color="#FFA981"/>
</radialGradient>
<linearGradient id="paint10_linear_1_126" x1="99.5948" y1="33.5304" x2="96.9075" y2="36.7052" gradientUnits="userSpaceOnUse">
<stop stop-color="#FFA981" stop-opacity="0"/>
<stop offset="1" stop-color="#B82934"/>
</linearGradient>
<linearGradient id="paint11_linear_1_126" x1="97.3006" y1="33.7401" x2="99.8012" y2="36.754" gradientUnits="userSpaceOnUse">
<stop stop-color="#FFA981" stop-opacity="0"/>
<stop offset="1" stop-color="#B82934"/>
</linearGradient>
<radialGradient id="paint12_radial_1_126" cx="0" cy="0" r="1" gradientUnits="userSpaceOnUse" gradientTransform="translate(101.816 35.963) rotate(-49.7538) scale(6.8274 6.8274)">
<stop stop-color="#FF5C45"/>
<stop offset="0.29" stop-color="#FF5F47"/>
<stop offset="0.498" stop-color="#FF684E"/>
<stop offset="0.681" stop-color="#FF785B"/>
<stop offset="0.847" stop-color="#FF8E6C"/>
<stop offset="0.998" stop-color="#FFA981"/>
</radialGradient>
<linearGradient id="paint13_linear_1_126" x1="95.0319" y1="37.5441" x2="100.529" y2="37.2277" gradientUnits="userSpaceOnUse">
<stop stop-color="#FFA981" stop-opacity="0"/>
<stop offset="1" stop-color="#B82934"/>
</linearGradient>
<radialGradient id="paint14_radial_1_126" cx="0" cy="0" r="1" gradientUnits="userSpaceOnUse" gradientTransform="translate(98.8686 33.1329) rotate(-41.0981) scale(7.08039 7.39718)">
<stop stop-color="#FF5C45"/>
<stop offset="0.29" stop-color="#FF5F47"/>
<stop offset="0.498" stop-color="#FF684E"/>
<stop offset="0.681" stop-color="#FF785B"/>
<stop offset="0.847" stop-color="#FF8E6C"/>
<stop offset="0.998" stop-color="#FFA981"/>
</radialGradient>
<radialGradient id="paint15_radial_1_126" cx="0" cy="0" r="1" gradientUnits="userSpaceOnUse" gradientTransform="translate(97.3354 39.3932) rotate(-61.9273) scale(6.34532 7.3281)">
<stop stop-color="#FF5C45"/>
<stop offset="0.29" stop-color="#FF5F47"/>
<stop offset="0.498" stop-color="#FF684E"/>
<stop offset="0.681" stop-color="#FF785B"/>
<stop offset="0.847" stop-color="#FF8E6C"/>
<stop offset="0.998" stop-color="#FFA981"/>
</radialGradient>
<linearGradient id="paint16_linear_1_126" x1="102.347" y1="35.0903" x2="98.7348" y2="36.1859" gradientUnits="userSpaceOnUse">
<stop stop-color="#FFA981" stop-opacity="0"/>
<stop offset="1" stop-color="#B82934"/>
</linearGradient>
<linearGradient id="paint17_linear_1_126" x1="102.02" y1="33.9831" x2="99.3869" y2="36.8824" gradientUnits="userSpaceOnUse">
<stop stop-color="#FFA981" stop-opacity="0"/>
<stop offset="1" stop-color="#B82934"/>
</linearGradient>
<radialGradient id="paint18_radial_1_126" cx="0" cy="0" r="1" gradientUnits="userSpaceOnUse" gradientTransform="translate(96.6077 34.6424) rotate(-63.1865) scale(6.41118 6.41116)">
<stop stop-color="#FF5C45"/>
<stop offset="0.29" stop-color="#FF5F47"/>
<stop offset="0.498" stop-color="#FF684E"/>
<stop offset="0.681" stop-color="#FF785B"/>
<stop offset="0.847" stop-color="#FF8E6C"/>
<stop offset="0.998" stop-color="#FFA981"/>
</radialGradient>
<linearGradient id="paint19_linear_1_126" x1="99.014" y1="40.8222" x2="99.5026" y2="36.9365" gradientUnits="userSpaceOnUse">
<stop stop-color="#FFA981" stop-opacity="0"/>
<stop offset="1" stop-color="#B82934"/>
</linearGradient>
<linearGradient id="paint20_linear_1_126" x1="103.923" y1="36.121" x2="98.5004" y2="37.1094" gradientUnits="userSpaceOnUse">
<stop stop-color="#FFA981" stop-opacity="0"/>
<stop offset="1" stop-color="#B82934"/>
</linearGradient>
<linearGradient id="paint21_linear_1_126" x1="105.216" y1="35.9385" x2="96.8628" y2="36.6333" gradientUnits="userSpaceOnUse">
<stop stop-color="#FFA981" stop-opacity="0"/>
<stop offset="1" stop-color="#B82934"/>
</linearGradient>
<linearGradient id="paint22_linear_1_126" x1="96.7824" y1="36.9309" x2="97.1341" y2="35.4289" gradientUnits="userSpaceOnUse">
<stop stop-color="#FEFFB3"/>
<stop offset="1" stop-color="#FFCD77"/>
</linearGradient>
<radialGradient id="paint23_radial_1_126" cx="0" cy="0" r="1" gradientUnits="userSpaceOnUse" gradientTransform="translate(93.4584 35.3203) rotate(-49.7538) scale(1.10752 1.10753)">
<stop stop-color="#FEFFB3"/>
<stop offset="0.193" stop-color="#FEF296"/>
<stop offset="0.609" stop-color="#FFD14B"/>
<stop offset="1" stop-color="#FFAF00"/>
</radialGradient>
<radialGradient id="paint24_radial_1_126" cx="0" cy="0" r="1" gradientUnits="userSpaceOnUse" gradientTransform="translate(94.5047 35.79) rotate(-49.7538) scale(0.549939)">
<stop stop-color="#FEFFB3"/>
<stop offset="0.193" stop-color="#FEF296"/>
<stop offset="0.609" stop-color="#FFD14B"/>
<stop offset="1" stop-color="#FFAF00"/>
</radialGradient>
<radialGradient id="paint25_radial_1_126" cx="0" cy="0" r="1" gradientUnits="userSpaceOnUse" gradientTransform="translate(94.8954 35.165) rotate(-49.7538) scale(0.549939 0.549941)">
<stop stop-color="#FEFFB3"/>
<stop offset="0.193" stop-color="#FEF296"/>
<stop offset="0.609" stop-color="#FFD14B"/>
<stop offset="1" stop-color="#FFAF00"/>
</radialGradient>
<radialGradient id="paint26_radial_1_126" cx="0" cy="0" r="1" gradientUnits="userSpaceOnUse" gradientTransform="translate(95.3106 35.9182) rotate(-49.7538) scale(0.549939)">
<stop stop-color="#FEFFB3"/>
<stop offset="0.193" stop-color="#FEF296"/>
<stop offset="0.609" stop-color="#FFD14B"/>
<stop offset="1" stop-color="#FFAF00"/>
</radialGradient>
<radialGradient id="paint27_radial_1_126" cx="0" cy="0" r="1" gradientUnits="userSpaceOnUse" gradientTransform="translate(95.8654 35.4594) rotate(-49.7538) scale(0.549939)">
<stop stop-color="#FEFFB3"/>
<stop offset="0.193" stop-color="#FEF296"/>
<stop offset="0.609" stop-color="#FFD14B"/>
<stop offset="1" stop-color="#FFAF00"/>
</radialGradient>
<clipPath id="clip0_1_126">
<rect width="25" height="25" fill="white" transform="translate(108.6 13.4083) rotate(-15.8021)"/>
</clipPath>
<clipPath id="clip1_1_126">
<rect width="13" height="13" fill="white" transform="translate(90.8228 37.7452) rotate(-49.7538)"/>
</clipPath>
<clipPath id="clip2_1_126">
<rect width="11.7917" height="11.7917" fill="white" transform="translate(48.3403 1) rotate(6.52691)"/>
</clipPath>
</defs>
</svg>
